<svg width="21" height="21" viewBox="0 0 21 21" fill="none" xmlns="http://www.w3.org/2000/svg">
<path d="M11.7099 1.29C11.617 1.19627 11.5064 1.12188 11.3845 1.07111C11.2627 1.02034 11.132 0.994202 10.9999 0.994202C10.8679 0.994202 10.7372 1.02034 10.6154 1.07111C10.4935 1.12188 10.3829 1.19627 10.2899 1.29L1.28994 10.29C1.19621 10.383 1.12182 10.4936 1.07105 10.6154C1.02028 10.7373 0.994141 10.868 0.994141 11C0.994141 11.132 1.02028 11.2627 1.07105 11.3846C1.12182 11.5064 1.19621 11.617 1.28994 11.71C1.38338 11.8027 1.49419 11.876 1.61603 11.9258C1.73787 11.9755 1.86833 12.0008 1.99994 12H2.99994V19C2.99994 19.5304 3.21065 20.0391 3.58573 20.4142C3.9608 20.7893 4.46951 21 4.99994 21H16.9999C17.5304 21 18.0391 20.7893 18.4142 20.4142C18.7892 20.0391 18.9999 19.5304 18.9999 19V12H19.9999C20.2652 12 20.5195 11.8946 20.707 11.7071C20.8946 11.5196 20.9999 11.2652 20.9999 11C21.0007 10.8684 20.9755 10.7379 20.9257 10.6161C20.8759 10.4943 20.8026 10.3834 20.7099 10.29L11.7099 1.29ZM4.99994 19V9.41L10.9999 3.41L16.9999 9.41V19H4.99994Z" fill="black"/>
</svg>
