<svg width="31" height="31" viewBox="0 0 31 31" fill="none" xmlns="http://www.w3.org/2000/svg">
<path d="M29.25 0H1.21875C0.544629 0 0 0.544629 0 1.21875V29.25C0 29.9241 0.544629 30.4688 1.21875 30.4688H29.25C29.9241 30.4688 30.4688 29.9241 30.4688 29.25V1.21875C30.4688 0.544629 29.9241 0 29.25 0ZM20.1741 15.5695L12.5798 21.5414C12.2979 21.7623 11.8828 21.5643 11.8828 21.2062V9.26631C11.8828 8.9083 12.2979 8.70645 12.5798 8.93115L20.1741 14.8992C20.2248 14.9391 20.2658 14.99 20.294 15.0481C20.3222 15.1062 20.3368 15.1698 20.3368 15.2344C20.3368 15.2989 20.3222 15.3626 20.294 15.4207C20.2658 15.4787 20.2248 15.5296 20.1741 15.5695Z" fill="white"/>
</svg>
