<svg width="19" height="19" viewBox="0 0 19 19" fill="none" xmlns="http://www.w3.org/2000/svg">
<path d="M12.6543 8.44238V5.77051L11.2441 7.18066V8.44238C11.2423 9.38311 10.4648 10.1513 9.5 10.1494C9.14561 10.1513 8.81719 10.0492 8.53516 9.87109L7.5332 10.8916C8.07314 11.3072 8.75596 11.5596 9.5 11.5596C11.2404 11.5596 12.6543 10.1661 12.6543 8.44238Z" fill="white"/>
<path d="M15.4561 8.27537H14.3428C14.2612 8.27537 14.1944 8.34217 14.1944 8.42381C14.1944 11.027 12.0847 13.1367 9.48147 13.1367C8.31252 13.1367 7.24192 12.7099 6.41995 12.0049L5.41799 13.0068C6.32532 13.8084 7.47385 14.3483 8.73928 14.5097V16.4023H6.04885C5.79094 16.4023 5.58684 16.6677 5.58499 16.9961V17.664C5.58684 17.7457 5.63879 17.8125 5.69631 17.8125H13.2666C13.326 17.8125 13.378 17.7457 13.378 17.664V16.9961C13.378 16.6677 13.1739 16.4023 12.9141 16.4023H10.1494V14.5097C13.2165 14.1776 15.6045 11.58 15.6045 8.42381C15.6045 8.34217 15.5377 8.27537 15.4561 8.27537ZM15.6991 1.26726L14.892 0.489822C14.8345 0.434158 14.7417 0.434158 14.6842 0.491678L12.2906 2.88523C11.7693 1.87771 10.7061 1.18748 9.48147 1.18748C7.73918 1.18748 6.32717 2.58465 6.32717 4.30467V8.46092C6.32717 8.58523 6.3346 8.70769 6.34944 8.8283L5.08772 10.09C4.8929 9.57234 4.78528 9.01013 4.78713 8.42381C4.78342 8.34217 4.71663 8.27537 4.6387 8.27537H3.52542C3.44377 8.27537 3.37698 8.34217 3.37698 8.42381C3.37698 9.4072 3.60891 10.3349 4.01897 11.1588L1.47698 13.7008C1.41946 13.7583 1.41946 13.8529 1.47698 13.9104L2.26926 14.7027C2.32678 14.7602 2.42141 14.7602 2.47893 14.7027L15.701 1.48064L15.7029 1.47879C15.7604 1.41941 15.7585 1.32478 15.6991 1.26726V1.26726ZM7.73733 7.44041V4.30467C7.73733 3.3658 8.51477 2.59763 9.48147 2.59763C10.335 2.59763 11.0419 3.19695 11.1941 3.98367L7.73733 7.44041Z" fill="white"/>
</svg>
