<svg width="13" height="18" viewBox="0 0 13 18" fill="none" xmlns="http://www.w3.org/2000/svg">
<path d="M1.04308e-07 7.83482C1.04308e-07 7.74643 0.0709092 7.67411 0.157576 7.67411H1.33939C1.42606 7.67411 1.49697 7.74643 1.49697 7.83482C1.49697 10.6533 3.73652 12.9375 6.5 12.9375C9.26348 12.9375 11.503 10.6533 11.503 7.83482C11.503 7.74643 11.5739 7.67411 11.6606 7.67411H12.8424C12.9291 7.67411 13 7.74643 13 7.83482C13 11.2239 10.5064 14.0203 7.28788 14.4161V16.4732H10.1498C10.4197 16.4732 10.6364 16.7605 10.6364 17.1161V17.8393C10.6364 17.9277 10.5812 18 10.5142 18H2.48576C2.41879 18 2.36364 17.9277 2.36364 17.8393V17.1161C2.36364 16.7605 2.5803 16.4732 2.85015 16.4732H5.79091V14.4261C2.535 14.0645 1.04308e-07 11.252 1.04308e-07 7.83482ZM6.5 11.25C4.65045 11.25 3.15152 9.73929 3.15152 7.875V3.375C3.15152 1.51071 4.65045 0 6.5 0C8.34955 0 9.84848 1.51071 9.84848 3.375V7.875C9.84848 9.73929 8.34955 11.25 6.5 11.25ZM8.35152 3.375C8.35152 2.35848 7.52621 1.52679 6.5 1.52679C5.47379 1.52679 4.64848 2.35848 4.64848 3.375V7.875C4.64848 8.89152 5.47379 9.72321 6.5 9.72321C7.52621 9.72321 8.35152 8.89152 8.35152 7.875V3.375Z" fill="white"/>
</svg>
